# Created by Metasequoia

v -48.167969 -8.678601 -14.381063
v -48.169754 -17.326088 0.596731
v -48.167969 -8.678601 15.574526
v -48.164696 8.615737 15.574526
v -48.164940 6.956711 2.657175
v -48.167694 -7.019695 2.657175
v -48.162857 17.262829 0.596731
v -39.047874 8.613760 15.574526
v -39.046013 17.260929 0.596731
v -39.050827 -8.680600 15.574526
v -39.052895 -17.328003 0.596731
v -39.050827 -8.680600 -14.381063
v -48.164696 8.615737 -14.381063
v -39.047874 8.613760 -14.381063
v -39.050446 -6.636808 4.265898
v -39.048439 6.569734 4.265898
v -39.050919 -6.636824 -3.072939
v -39.047630 6.569942 -3.072939
v -48.164940 6.956711 -1.464212
v -48.167694 -7.019695 -1.464212
v 51.266785 -6.654956 -3.072416
v 51.269501 6.551748 -3.072416
v 51.269501 6.551748 4.265898
v 51.267181 -6.655158 4.265898
v -243.226685 -6.979737 2.657175
v -243.226685 -6.979737 -1.464212
v -151.822739 -6.998472 -1.464212
v -151.822739 -6.998472 2.657175
v -243.223892 6.996516 0.988142
v -151.820053 6.977664 1.770426
v -243.223892 6.996516 0.205339
v -151.820053 6.977664 -0.576963
v -326.163177 -6.962947 1.283205
v -326.163177 -6.962947 -0.090242
v -307.559082 -6.966901 -0.777239
v -307.559082 -6.966901 1.970201
v -326.161194 1.376957 0.596731
v -307.556824 4.606687 0.596731
v -344.766235 -6.959096 0.596731
v -288.955994 -6.970783 -1.464212
v -288.955994 -6.970783 2.657175
v -288.953186 7.005569 0.596731
v 0.000000 70.710701 0.000000
v 70.710701 0.000000 0.000000
v -70.710701 0.000000 0.000000
v 0.000000 -70.710602 0.000000
v 0.000000 55.656200 4.000000
v 55.656200 0.000000 4.000000
v -55.656101 0.000000 4.000000
v 0.000000 -55.656101 4.000000
v 0.000000 55.656200 -4.000000
v 55.656200 0.000000 -4.000000
v -55.656101 0.000000 -4.000000
v 0.000000 -55.656101 -4.000000
v -32.735840 66.638474 -4.044284
v -27.273849 70.137375 7.189062
v -32.735840 66.638474 18.422409
v -43.659245 59.640556 18.422409
v -42.611359 60.311954 8.734395
v -33.783592 65.967163 8.734395
v -49.121033 56.141762 7.189062
v -47.348106 65.399033 18.422409
v -52.809875 61.900246 7.189062
v -36.424683 72.397079 18.422409
v -30.962692 75.895851 7.189062
v -36.424683 72.397079 -4.044284
v -43.659245 59.640556 -4.044284
v -47.348106 65.399033 -4.044284
v -37.715599 71.570091 9.940937
v -46.056915 66.225998 9.940937
v -37.715347 71.569794 4.436810
v -46.057419 66.226395 4.436810
v -42.611359 60.311954 5.643354
v -33.783592 65.967163 5.643354
v -74.260178 128.616730 4.437201
v -82.602043 123.273010 4.437201
v -82.602043 123.273010 9.940937
v -74.260155 128.617065 9.940937
v 45.141705 -57.237198 8.734395
v 45.141705 -57.237198 5.643354
v 8.157557 0.496014 5.643354
v 8.157557 0.496014 8.734395
v 36.313885 -62.892204 7.482620
v -0.670132 -5.159207 8.069333
v 36.313885 -62.892204 6.895518
v -0.670132 -5.159207 6.308791
v 78.699707 -109.621674 7.703918
v 78.699707 -109.621674 6.673832
v 71.172234 -97.871017 6.158585
v 71.172234 -97.871017 8.219165
v 73.431847 -112.996231 7.189062
v 63.862053 -102.553970 7.189062
v 86.226845 -121.371948 7.189062
v 63.644958 -86.120712 5.643354
v 63.644958 -86.120712 8.734395
v 54.817162 -91.775932 7.189062
# 96 vertices

vt 0.49260 0.98870
vt 0.53340 0.91800
vt 0.49260 0.84720
vt 0.41880 0.92770
vt 0.41090 0.98870
vt 0.48480 0.92770
vt 0.32190 0.08700
vt 0.32190 0.05020
vt 0.18910 0.05020
vt 0.18910 0.08700
vt 0.45460 0.08700
vt 0.45460 0.05020
vt 0.58740 0.08700
vt 0.58740 0.05020
vt 0.72010 0.08700
vt 0.72010 0.05020
vt 0.85290 0.08700
vt 0.85290 0.05020
vt 0.98560 0.08700
vt 0.98560 0.05020
vt 0.37010 0.91800
vt 0.41090 0.84720
vt 0.22690 0.79700
vt 0.22690 0.98180
vt 0.28030 0.88940
vt 0.13290 0.91200
vt 0.12030 0.98180
vt 0.21430 0.91200
vt 0.13290 0.86670
vt 0.12030 0.79700
vt 0.21430 0.86670
vt 0.41880 0.90820
vt 0.48480 0.90820
vt 0.06690 0.88940
vt 0.63120 0.78310
vt 0.63120 0.83330
vt 0.54080 0.83340
vt 0.54080 0.78310
vt 0.49060 0.78310
vt 0.49060 0.13520
vt 0.54080 0.13520
vt 0.63120 0.13520
vt 0.68140 0.13520
vt 0.68140 0.78310
vt 0.18470 0.75320
vt 0.18480 0.13440
vt 0.21340 0.13440
vt 0.21340 0.75320
vt 0.31140 0.13440
vt 0.31100 0.75320
vt 0.31680 0.13440
vt 0.32700 0.75320
vt 0.34970 0.58270
vt 0.35970 0.71200
vt 0.36930 0.71160
vt 0.36880 0.58200
vt 0.42760 0.71160
vt 0.45000 0.58210
vt 0.36970 0.84120
vt 0.36840 0.45260
vt 0.33970 0.45310
vt 0.46660 0.45260
vt 0.33970 0.13440
vt 0.36840 0.13440
vt 0.04170 0.75320
vt 0.04170 0.01390
vt 0.01310 0.01390
vt 0.01310 0.75320
vt 0.46640 0.13440
vt 0.13930 0.75320
vt 0.13880 0.01390
vt 0.47180 0.13440
vt 0.15530 0.75320
vt 0.16750 0.01390
vt 0.19937 0.83379
vt 0.19852 0.83208
vt 0.19852 0.83719
vt 0.19937 0.83549
vt 0.20107 0.83719
vt 0.20022 0.83549
vt 0.20107 0.83208
vt 0.20022 0.83379
vt 0.20012 0.89238
vt 0.11429 0.80437
vt 0.02803 0.89196
vt 0.11429 0.97870
vt 0.20245 0.83716
vt 0.20245 0.83213
vt 0.20329 0.83381
vt 0.20329 0.83549
vt 0.20497 0.83716
vt 0.20412 0.83549
vt 0.20497 0.83213
vt 0.20412 0.83381
vt 0.20016 0.89234
vt 0.11433 0.80433
vt 0.02807 0.89192
vt 0.11433 0.97866
# 98 texture vertices

vn -1.00000 0.00019 -0.00000
vn -1.00000 0.00021 0.00000
vn -1.00000 0.00019 -0.00000
vn -1.00000 0.00016 -0.00000
vn -1.00000 0.00019 -0.00000
vn -1.00000 0.00018 0.00000
vn 0.00019 0.86603 0.49999
vn 0.00019 0.86603 0.49999
vn 0.00018 0.86603 0.49999
vn 0.00018 0.86603 0.49999
vn 0.00000 0.00000 1.00000
vn -0.00018 -0.86602 0.50000
vn -0.00018 -0.86602 0.50000
vn -0.00019 -0.86603 0.50000
vn -0.00019 -0.86603 0.50000
vn -0.00019 -0.86602 -0.50000
vn -0.00019 -0.86602 -0.50000
vn -0.00018 -0.86603 -0.50000
vn -0.00018 -0.86603 -0.50000
vn 0.00000 0.00000 -1.00000
vn 0.00018 0.86603 -0.49999
vn 0.00018 0.86603 -0.49999
vn 0.00019 0.86603 -0.49999
vn 0.00019 0.86603 -0.49999
vn -1.00000 0.00021 0.00000
vn -1.00000 0.00020 0.00000
vn 1.00000 -0.00016 -0.00003
vn 1.00000 -0.00018 -0.00001
vn 1.00000 -0.00022 0.00000
vn 1.00000 -0.00040 -0.00004
vn 1.00000 -0.00019 -0.00000
vn 1.00000 -0.00021 -0.00001
vn 1.00000 -0.00008 0.00002
vn 1.00000 -0.00020 0.00000
vn 1.00000 0.00038 0.00006
vn -1.00000 0.00017 0.00000
vn -1.00000 0.00018 0.00000
vn 1.00000 -0.00024 0.00000
vn 1.00000 -0.00020 -0.00002
vn 1.00000 -0.00021 0.00000
vn 1.00000 -0.00019 -0.00004
vn 1.00000 -0.00018 -0.00005
vn -0.00020 -1.00000 -0.00003
vn -0.00020 -1.00000 0.00000
vn -0.00020 -1.00000 0.00000
vn -0.00020 -1.00000 -0.00003
vn 0.00001 -0.00000 -1.00000
vn 0.00001 -0.00000 -1.00000
vn 0.00001 -0.00000 -1.00000
vn 0.00001 -0.00000 -1.00000
vn 0.00020 1.00000 0.00000
vn 0.00020 1.00000 0.00003
vn 0.00020 1.00000 0.00003
vn 0.00020 1.00000 0.00000
vn -0.00020 -1.00000 0.00000
vn -0.00020 -1.00000 0.00000
vn -0.00020 -1.00000 0.00000
vn -0.00020 -1.00000 0.00000
vn -0.00384 0.06601 0.99781
vn -0.00341 0.12118 0.99262
vn -0.00464 0.11591 0.99325
vn -0.00462 0.06062 0.99815
vn 0.00020 1.00000 0.00000
vn 0.00020 1.00000 0.00000
vn 0.00020 1.00000 0.00000
vn -0.00467 0.06605 -0.99781
vn -0.00503 0.12122 -0.99261
vn -0.00382 0.11595 -0.99325
vn -0.00390 0.06066 -0.99815
vn -0.00021 -1.00000 0.00000
vn -0.00021 -1.00000 0.00000
vn -0.00021 -1.00000 0.00000
vn -0.00021 -1.00000 0.00000
vn -0.03075 0.11300 0.99312
vn -0.03675 0.08199 0.99596
vn -0.03339 0.08939 0.99544
vn -0.02535 0.12406 0.99195
vn -0.03340 0.08945 -0.99543
vn -0.03676 0.08205 -0.99595
vn -0.03076 0.11304 -0.99311
vn -0.02535 0.12410 -0.99195
vn -0.00021 -1.00000 0.00000
vn -0.00020 -1.00000 0.00000
vn -0.03673 0.08199 0.99596
vn -0.00984 0.14315 0.98965
vn -0.01254 0.14087 0.98995
vn -0.03676 0.08205 -0.99595
vn -0.01598 0.13830 -0.99026
vn -0.01341 0.14587 -0.98921
vn -0.00020 -1.00000 0.00000
vn -0.00020 -1.00000 0.00000
vn -0.00855 0.00000 0.99996
vn -0.00782 0.00541 0.99995
vn 0.00020 1.00000 0.00000
vn 0.00020 1.00000 0.00000
vn -0.00073 0.00542 -0.99999
vn -0.00000 0.19159 0.98148
vn -0.00000 0.25679 0.96647
vn 0.25679 -0.00000 0.96647
vn 0.19159 -0.00000 0.98148
vn -0.00000 -0.25679 0.96647
vn -0.00000 -0.19159 0.98148
vn -0.25679 -0.00000 0.96647
vn -0.19159 -0.00000 0.98148
vn 0.25679 -0.00000 -0.96647
vn -0.00000 0.25679 -0.96647
vn -0.00000 0.19159 -0.98148
vn 0.19159 -0.00000 -0.98148
vn -0.00000 -0.25679 -0.96647
vn -0.00000 -0.19159 -0.98148
vn -0.25679 -0.00000 -0.96647
vn -0.19159 -0.00000 -0.98148
vn 0.53943 -0.84203 0.00000
vn 0.53941 -0.84205 0.00000
vn 0.53943 -0.84203 -0.00000
vn 0.53946 -0.84201 -0.00000
vn 0.53943 -0.84203 -0.00001
vn 0.53946 -0.84201 0.00000
vn -0.72921 -0.46713 0.50004
vn -0.72921 -0.46713 0.50004
vn -0.72921 -0.46713 0.50004
vn -0.72921 -0.46713 0.50004
vn 0.72921 0.46712 0.50006
vn 0.72920 0.46712 0.50006
vn 0.72921 0.46712 0.50005
vn 0.72921 0.46712 0.50005
vn 0.72921 0.46712 -0.50006
vn 0.72921 0.46712 -0.50006
vn 0.72921 0.46712 -0.50006
vn 0.72921 0.46712 -0.50005
vn -0.72921 -0.46713 -0.50004
vn -0.72921 -0.46713 -0.50004
vn -0.72921 -0.46713 -0.50004
vn -0.72921 -0.46713 -0.50004
vn 0.53941 -0.84204 0.00000
vn 0.53943 -0.84203 0.00000
vn -0.53945 0.84202 -0.00003
vn -0.53943 0.84203 -0.00001
vn -0.53941 0.84204 0.00000
vn -0.53923 0.84216 -0.00005
vn -0.53943 0.84203 -0.00000
vn -0.53940 0.84205 -0.00001
vn -0.53953 0.84197 0.00002
vn -0.53942 0.84204 0.00001
vn -0.53989 0.84173 0.00007
vn 0.53946 -0.84201 0.00000
vn 0.53946 -0.84201 -0.00000
vn -0.53939 0.84205 0.00000
vn -0.53941 0.84204 -0.00002
vn -0.53941 0.84205 0.00000
vn -0.53942 0.84204 -0.00003
vn -0.53943 0.84203 -0.00005
vn 0.84204 0.53942 -0.00003
vn 0.84204 0.53942 0.00001
vn 0.84204 0.53942 0.00001
vn 0.84204 0.53941 -0.00004
vn -0.00000 0.00000 -1.00000
vn -0.00000 0.00000 -1.00000
vn -0.00000 0.00000 -1.00000
vn -0.00000 0.00000 -1.00000
vn -0.84204 -0.53942 0.00000
vn -0.84204 -0.53942 0.00004
vn -0.84204 -0.53942 0.00004
vn -0.84204 -0.53942 -0.00000
vn 0.84204 0.53941 0.00000
vn 0.84204 0.53942 0.00000
vn 0.84204 0.53942 0.00000
vn 0.84204 0.53941 0.00000
vn -0.05350 -0.03885 0.99781
vn -0.10017 -0.06825 0.99263
vn -0.09507 -0.06644 0.99325
vn -0.04854 -0.03660 0.99815
vn -0.84204 -0.53942 0.00000
vn -0.84204 -0.53942 0.00000
vn -0.84204 -0.53942 0.00000
vn -0.05308 -0.03956 -0.99781
vn -0.09933 -0.06963 -0.99262
vn -0.09555 -0.06577 -0.99325
vn -0.04896 -0.03600 -0.99815
vn 0.84204 0.53941 0.00000
vn 0.84204 0.53941 0.00000
vn 0.84204 0.53941 0.00000
vn 0.84204 0.53941 0.00000
vn -0.07853 -0.08685 0.99312
vn -0.04919 -0.07517 0.99596
vn -0.05723 -0.07633 0.99544
vn -0.09076 -0.08827 0.99195
vn -0.05727 -0.07637 -0.99543
vn -0.04923 -0.07521 -0.99595
vn -0.07857 -0.08688 -0.99312
vn -0.09079 -0.08830 -0.99195
vn 0.84204 0.53941 0.00000
vn 0.84204 0.53942 0.00000
vn -0.04920 -0.07515 0.99596
vn -0.11519 -0.08551 0.98966
vn -0.11181 -0.08656 0.98995
vn -0.04923 -0.07521 -0.99595
vn -0.10780 -0.08807 -0.99026
vn -0.11556 -0.08998 -0.98922
vn 0.84204 0.53942 0.00000
vn 0.84204 0.53942 0.00000
vn 0.00461 -0.00720 0.99996
vn -0.00034 -0.00951 0.99995
vn -0.84204 -0.53942 0.00000
vn -0.84204 -0.53942 -0.00000
vn -0.00417 -0.00354 -0.99999
# 206 normal vertices

g blade
f 1/3/3 2/2/2 3/1/1
f 3/1/1 4/5/5 5/4/4
f 5/4/4 6/6/6 3/1/1
f 7/9/9 4/8/8 8/7/7
f 8/7/7 9/10/10 7/9/9
f 4/8/11 3/12/11 10/11/11
f 10/11/11 8/7/11 4/8/11
f 3/12/14 2/14/13 11/13/12
f 11/13/12 10/11/15 3/12/14
f 2/14/18 1/16/17 12/15/16
f 12/15/16 11/13/19 2/14/18
f 1/16/20 13/18/20 14/17/20
f 14/17/20 12/15/20 1/16/20
f 13/18/23 7/20/22 9/19/21
f 9/19/21 14/17/24 13/18/23
f 13/22/26 4/5/5 7/21/25
f 9/25/29 8/24/28 14/23/27
f 8/24/28 10/27/31 15/26/30
f 15/26/30 16/28/32 8/24/28
f 10/27/31 12/30/34 17/29/33
f 17/29/33 15/26/30 10/27/31
f 12/30/34 14/23/27 18/31/35
f 18/31/35 17/29/33 12/30/34
f 14/23/27 8/24/28 16/28/32
f 16/28/32 18/31/35 14/23/27
f 4/5/5 13/22/26 19/32/36
f 19/32/36 5/4/4 4/5/5
f 13/22/26 1/3/3 20/33/37
f 20/33/37 19/32/36 13/22/26
f 1/3/3 3/1/1 6/6/6
f 6/6/6 20/33/37 1/3/3
f 10/27/31 11/34/38 12/30/34
f 21/37/41 22/36/40 23/35/39
f 23/35/39 24/38/42 21/37/41
f 15/41/45 17/40/44 21/39/43
f 21/39/43 24/38/46 15/41/45
f 17/41/49 18/42/48 22/35/47
f 22/35/47 21/38/50 17/41/49
f 18/43/53 16/42/52 23/35/51
f 23/35/51 22/44/54 18/43/53
f 16/42/11 15/41/11 24/38/11
f 24/38/11 23/35/11 16/42/11
f 25/47/57 26/46/56 27/45/55
f 27/45/55 28/48/58 25/47/57
f 29/49/61 25/47/60 28/48/59
f 28/48/59 30/50/62 29/49/61
f 31/51/64 29/49/64 30/50/63
f 30/50/63 32/52/65 31/51/64
f 26/47/68 31/49/67 32/50/66
f 32/50/66 27/48/69 26/47/68
f 33/55/72 34/54/71 35/53/70
f 35/53/70 36/56/73 33/55/72
f 37/57/76 33/55/75 36/56/74
f 36/56/74 38/58/77 37/57/76
f 35/56/80 34/55/79 37/57/78
f 37/57/78 38/58/81 35/56/80
f 33/55/72 39/59/82 34/54/71
f 40/61/83 41/60/83 36/56/73
f 36/56/73 35/53/70 40/61/83
f 37/57/76 39/59/84 33/55/75
f 41/60/86 42/62/85 38/58/77
f 38/58/77 36/56/74 41/60/86
f 34/55/79 39/59/87 37/57/78
f 38/58/81 42/62/89 40/60/88
f 40/60/88 35/56/80 38/58/81
f 41/60/83 40/61/83 26/63/56
f 26/63/56 25/64/57 41/60/83
f 20/67/91 6/66/90 28/65/58
f 28/65/58 27/68/55 20/67/91
f 42/62/85 41/60/86 25/64/60
f 25/64/60 29/69/61 42/62/85
f 6/66/93 5/71/92 30/70/62
f 30/70/62 28/65/59 6/66/93
f 31/72/64 42/62/94 29/69/64
f 5/71/95 19/74/95 32/73/65
f 32/73/65 30/70/63 5/71/95
f 40/60/88 42/62/89 31/69/67
f 31/69/67 26/64/68 40/60/88
f 19/71/96 20/66/20 27/65/69
f 27/65/69 32/70/66 19/71/96
g item_blade
f 44/77/99 43/76/98 47/75/97
f 48/78/100 44/77/99 47/75/97
f 46/79/101 44/77/99 48/78/100
f 50/80/102 46/79/101 48/78/100
f 45/81/103 46/79/101 50/80/102
f 49/82/104 45/81/103 50/80/102
f 43/76/98 45/81/103 49/82/104
f 47/75/97 43/76/98 49/82/104
f 49/85/104 50/84/102 48/83/100
f 47/86/97 49/85/104 48/83/100
f 51/89/107 43/88/106 44/87/105
f 52/90/108 51/89/107 44/87/105
f 52/90/108 44/87/105 46/91/109
f 54/92/110 52/90/108 46/91/109
f 54/92/110 46/91/109 45/93/111
f 53/94/112 54/92/110 45/93/111
f 53/94/112 45/93/111 43/88/106
f 51/89/107 53/94/112 43/88/106
f 52/97/108 54/96/110 53/95/112
f 51/98/107 52/97/108 53/95/112
f 55/3/115 56/2/114 57/1/113
f 57/1/113 58/5/117 59/4/116
f 59/4/116 60/6/118 57/1/113
f 61/9/121 58/8/120 62/7/119
f 62/7/119 63/10/122 61/9/121
f 58/8/11 57/12/11 64/11/11
f 64/11/11 62/7/11 58/8/11
f 57/12/125 56/14/124 65/13/123
f 65/13/123 64/11/126 57/12/125
f 56/14/129 55/16/128 66/15/127
f 66/15/127 65/13/130 56/14/129
f 55/16/20 67/18/20 68/17/20
f 68/17/20 66/15/20 55/16/20
f 67/18/133 61/20/132 63/19/131
f 63/19/131 68/17/134 67/18/133
f 67/22/136 58/5/117 61/21/135
f 63/25/139 62/24/138 68/23/137
f 62/24/138 64/27/141 69/26/140
f 69/26/140 70/28/142 62/24/138
f 64/27/141 66/30/144 71/29/143
f 71/29/143 69/26/140 64/27/141
f 66/30/144 68/23/137 72/31/145
f 72/31/145 71/29/143 66/30/144
f 68/23/137 62/24/138 70/28/142
f 70/28/142 72/31/145 68/23/137
f 58/5/117 67/22/136 73/32/146
f 73/32/146 59/4/116 58/5/117
f 67/22/136 55/3/115 74/33/147
f 74/33/147 73/32/146 67/22/136
f 55/3/115 57/1/113 60/6/118
f 60/6/118 74/33/147 55/3/115
f 64/27/141 65/34/148 66/30/144
f 75/37/151 76/36/150 77/35/149
f 77/35/149 78/38/152 75/37/151
f 69/41/155 71/40/154 75/39/153
f 75/39/153 78/38/156 69/41/155
f 71/41/159 72/42/158 76/35/157
f 76/35/157 75/38/160 71/41/159
f 72/43/163 70/42/162 77/35/161
f 77/35/161 76/44/164 72/43/163
f 70/42/11 69/41/11 78/38/11
f 78/38/11 77/35/11 70/42/11
f 79/47/167 80/46/166 81/45/165
f 81/45/165 82/48/168 79/47/167
f 83/49/171 79/47/170 82/48/169
f 82/48/169 84/50/172 83/49/171
f 85/51/175 83/49/174 84/50/173
f 84/50/173 86/52/173 85/51/175
f 80/47/178 85/49/177 86/50/176
f 86/50/176 81/48/179 80/47/178
f 87/55/182 88/54/181 89/53/180
f 89/53/180 90/56/183 87/55/182
f 91/57/186 87/55/185 90/56/184
f 90/56/184 92/58/187 91/57/186
f 89/56/190 88/55/189 91/57/188
f 91/57/188 92/58/191 89/56/190
f 87/55/182 93/59/192 88/54/181
f 94/61/193 95/60/193 90/56/183
f 90/56/183 89/53/180 94/61/193
f 91/57/186 93/59/194 87/55/185
f 95/60/196 96/62/195 92/58/187
f 92/58/187 90/56/184 95/60/196
f 88/55/189 93/59/197 91/57/188
f 92/58/191 96/62/199 94/60/198
f 94/60/198 89/56/190 92/58/191
f 95/60/193 94/61/193 80/63/166
f 80/63/166 79/64/167 95/60/193
f 74/67/201 60/66/200 82/65/168
f 82/65/168 81/68/165 74/67/201
f 96/62/195 95/60/196 79/64/170
f 79/64/170 83/69/171 96/62/195
f 60/66/203 59/71/202 84/70/172
f 84/70/172 82/65/169 60/66/203
f 85/72/175 96/62/204 83/69/174
f 59/71/205 73/74/205 86/73/173
f 86/73/173 84/70/173 59/71/205
f 94/60/198 96/62/199 85/69/177
f 85/69/177 80/64/178 94/60/198
f 73/71/206 74/66/20 81/65/179
f 81/65/179 86/70/176 73/71/206
# 180 elements

